<svg width="265" height="55" viewBox="0 0 265 55" fill="none" xmlns="http://www.w3.org/2000/svg">
    <rect width="1" height="55" fill="#41A6DC"/>
    <rect x="11" y="35" width="1" height="20" fill="#41A6DC"/>
    <rect x="22" y="35" width="1" height="20" fill="#41A6DC"/>
    <rect x="33" y="35" width="1" height="20" fill="#41A6DC"/>
    <rect x="44" y="35" width="1" height="20" fill="#41A6DC"/>
    <rect x="55" y="35" width="1" height="20" fill="#41A6DC"/>
    <rect x="66" y="35" width="1" height="20" fill="#41A6DC"/>
    <rect x="77" y="35" width="1" height="20" fill="#41A6DC"/>
    <rect x="88" y="35" width="1" height="20" fill="#41A6DC"/>
    <rect x="99" y="35" width="1" height="20" fill="#41A6DC"/>
    <rect x="110" y="35" width="1" height="20" fill="#41A6DC"/>
    <rect x="121" y="35" width="1" height="20" fill="#41A6DC"/>
    <rect x="132" y="35" width="1" height="20" fill="#41A6DC"/>
    <rect x="143" y="35" width="1" height="20" fill="#41A6DC"/>
    <rect x="154" y="35" width="1" height="20" fill="#41A6DC"/>
    <rect x="165" y="35" width="1" height="20" fill="#41A6DC"/>
    <rect x="176" y="35" width="1" height="20" fill="#41A6DC"/>
    <rect x="187" y="35" width="1" height="20" fill="#41A6DC"/>
    <rect x="198" y="35" width="1" height="20" fill="#41A6DC"/>
    <rect x="209" y="35" width="1" height="20" fill="#41A6DC"/>
    <rect x="220" y="35" width="1" height="20" fill="#41A6DC"/>
    <rect x="231" y="35" width="1" height="20" fill="#41A6DC"/>
    <rect x="242" y="35" width="1" height="20" fill="#41A6DC"/>
    <rect x="253" y="35" width="1" height="20" fill="#41A6DC"/>
</svg>