<svg xmlns="http://www.w3.org/2000/svg" width="40" height="40" fill="none" viewBox="0 0 40 40">
    <path fill="#fff" d="M34.258.234A.797.797 0 0 0 33.694 0H6.306a.797.797 0 0 0-.796.797v38.406c0 .44.356.797.796.797h27.32c.44 0 .796-.356.796-.795L34.491.798a.796.796 0 0 0-.233-.564zM32.83 38.406H7.103V1.594h25.792l-.065 36.812z"/>
    <path fill="#fff" d="M31.617 33.308l-3.653-3.686a4.117 4.117 0 0 0-4.098-4.443 4.117 4.117 0 0 0-4.098 4.44l-3.678 3.687a.797.797 0 0 0 .473 1.355l1.735.199.199 1.735a.797.797 0 0 0 1.356.471l3.669-3.678a4.164 4.164 0 0 0 .684 0l3.644 3.677a.796.796 0 0 0 1.358-.47l.2-1.736 1.734-.199a.797.797 0 0 0 .475-1.352zM19.892 34.77l-.083-.722a.797.797 0 0 0-.701-.7l-.727-.084 1.922-1.926a4.14 4.14 0 0 0 1.505 1.51l-1.916 1.922zm3.974-2.961a2.521 2.521 0 0 1-2.518-2.519 2.521 2.521 0 0 1 2.518-2.518 2.521 2.521 0 0 1 2.518 2.518 2.521 2.521 0 0 1-2.518 2.519zm4.73 1.539a.797.797 0 0 0-.7.7l-.082.715-1.895-1.912a4.141 4.141 0 0 0 1.508-1.508l1.903 1.92-.733.085zM16.414 27.49H10.28a.797.797 0 0 0 0 1.594h6.135a.797.797 0 0 0 0-1.594zM23.227 4.78h-6.454a.797.797 0 0 0 0 1.594h6.454a.797.797 0 0 0 0-1.593zM29.363 8.127H10.637a.797.797 0 0 0 0 1.594h18.726a.797.797 0 0 0 0-1.594zM25.856 13.626H17.45a.797.797 0 0 0 0 1.593h8.407a.797.797 0 1 0 0-1.593zM14.582 13.626h-.439a.797.797 0 0 0 0 1.593h.439a.797.797 0 0 0 0-1.593zM25.856 16.733H17.45a.797.797 0 0 0 0 1.594h8.407a.797.797 0 1 0 0-1.594zM14.582 16.733h-.439a.797.797 0 0 0 0 1.594h.439a.797.797 0 0 0 0-1.594zM25.856 19.92H17.45a.797.797 0 0 0 0 1.594h8.407a.797.797 0 1 0 0-1.594zM14.582 19.92h-.439a.797.797 0 0 0 0 1.594h.439a.797.797 0 0 0 0-1.594z"/>
</svg>
