<svg xmlns="http://www.w3.org/2000/svg" width="40" height="40" fill="none" viewBox="0 0 40 40">
    <g fill="#fff" clip-path="url(#a)">
        <path d="M26.667 22c-2.206 0-4 1.794-4 4s1.794 4 4 4 4-1.794 4-4-1.794-4-4-4zm0 6.667A2.67 2.67 0 0 1 24 26a2.67 2.67 0 0 1 2.667-2.667A2.67 2.67 0 0 1 29.333 26a2.67 2.67 0 0 1-2.666 2.667z"/>
        <path d="M28 28.667v2.754l-.964-.642a.664.664 0 0 0-.74 0l-.963.642v-2.754H24v4a.666.666 0 0 0 1.036.554l1.63-1.086 1.63 1.086a.67.67 0 0 0 .685.034.667.667 0 0 0 .352-.588v-4H28zM24 6.667h-8.667V8H24V6.667zM30.667 10.667H9.333V12h21.334v-1.333zM24 14.667H9.334V16H24v-1.333zM30.667 14.667h-4V16h4v-1.333zM30.667 18.667H9.333V20h21.334v-1.333zM17.334 22.667h-8V24h8v-1.333zM12.667 26H9.334v1.333h3.333V26zM17.333 26h-2v1.333h2V26zM36.667 0a3.337 3.337 0 0 0-3.334 3.333v1.334c0 .368.298.666.667.666h5.333A.666.666 0 0 0 40 4.667V3.333A3.337 3.337 0 0 0 36.667 0zm2 4h-4v-.667c0-1.102.897-2 2-2 1.102 0 2 .898 2 2V4z"/>
        <path d="M36.666 0h-28a3.337 3.337 0 0 0-3.333 3.333v32h1.334v-32c0-1.102.897-2 2-2H34a3.316 3.316 0 0 0-.668 2v33.334c0 1.102-.897 2-2 2H6V40h25.333a3.337 3.337 0 0 0 3.334-3.333V3.333c0-1.102.897-2 2-2a.666.666 0 1 0 0-1.333z"/>
        <path d="M31.333 38.667c-1.102 0-2-.898-2-2v-1.334a.666.666 0 0 0-.666-.666h-28a.666.666 0 0 0-.667.666v1.334A3.337 3.337 0 0 0 3.333 40h28a.666.666 0 1 0 0-1.333zm-28 0c-1.102 0-2-.898-2-2V36H28v.667c0 .75.249 1.442.668 2H3.333z"/>
    </g>
    <defs>
        <clipPath id="a">
            <path fill="#fff" d="M0 0h40v40H0z"/>
        </clipPath>
    </defs>
</svg>
