<svg xmlns="http://www.w3.org/2000/svg" width="14" height="14" fill="none" viewBox="0 0 14 14">
    <path fill="#41A6DC" d="M4.077 7.173c0-.377-.262-.602-.724-.602-.189 0-.316.019-.383.037v1.21c.079.018.176.025.31.025.492 0 .797-.25.797-.67zM6.936 6.584c-.207 0-.34.018-.42.036v2.682c.08.019.207.019.322.019.84.006 1.387-.456 1.387-1.436.006-.852-.493-1.301-1.29-1.301z"/>
    <path fill="#41A6DC" d="M12.415 5.008h-.337V3.386l-.002-.03a.27.27 0 0 0-.066-.179L9.311.094 9.31.092a.273.273 0 0 0-.127-.08c-.005 0-.01-.003-.015-.004A.274.274 0 0 0 9.104 0H2.471a.55.55 0 0 0-.55.549v4.459h-.336a.785.785 0 0 0-.784.784v4.081c0 .433.351.785.784.785h.337v2.793A.55.55 0 0 0 2.47 14h9.058a.55.55 0 0 0 .55-.549v-2.793h.336a.785.785 0 0 0 .784-.785v-4.08a.785.785 0 0 0-.784-.785zM2.47.549H8.83v2.81c0 .15.123.274.274.274h2.425v1.375H2.471V.549zm6.74 7.306c0 .784-.286 1.326-.682 1.66-.432.359-1.089.53-1.891.53-.48 0-.821-.031-1.053-.061V5.957c.34-.055.785-.085 1.253-.085.779 0 1.284.14 1.679.438.426.316.693.82.693 1.545zm-7.16 2.147V5.957a7.619 7.619 0 0 1 1.253-.085c.572 0 .98.11 1.253.329.262.206.438.547.438.948 0 .402-.134.742-.377.973-.317.299-.785.432-1.332.432-.122 0-.232-.006-.316-.018v1.466H2.05zm9.478 3.3H2.471v-2.644h9.058v2.644zm.796-6.64h-1.576V7.6h1.472v.755H10.75v1.648h-.93v-4.1h2.506v.76z"/>
</svg>
