<svg width="265" height="55" viewBox="0 0 265 55" fill="none" xmlns="http://www.w3.org/2000/svg">
    <rect width="1" height="55" fill="#41A6DC"/>
    <rect x="11" width="1" height="20" fill="#41A6DC"/>
    <rect x="22" width="1" height="20" fill="#41A6DC"/>
    <rect x="33" width="1" height="20" fill="#41A6DC"/>
    <rect x="44" width="1" height="20" fill="#41A6DC"/>
    <rect x="55" width="1" height="20" fill="#41A6DC"/>
    <rect x="66" width="1" height="20" fill="#41A6DC"/>
    <rect x="77" width="1" height="20" fill="#41A6DC"/>
    <rect x="88" width="1" height="20" fill="#41A6DC"/>
    <rect x="99" width="1" height="20" fill="#41A6DC"/>
    <rect x="110" width="1" height="20" fill="#41A6DC"/>
    <rect x="121" width="1" height="20" fill="#41A6DC"/>
    <rect x="132" width="1" height="20" fill="#41A6DC"/>
    <rect x="143" width="1" height="20" fill="#41A6DC"/>
    <rect x="154" width="1" height="20" fill="#41A6DC"/>
    <rect x="165" width="1" height="20" fill="#41A6DC"/>
    <rect x="176" width="1" height="20" fill="#41A6DC"/>
    <rect x="187" width="1" height="20" fill="#41A6DC"/>
    <rect x="198" width="1" height="20" fill="#41A6DC"/>
    <rect x="209" width="1" height="20" fill="#41A6DC"/>
    <rect x="220" width="1" height="20" fill="#41A6DC"/>
    <rect x="231" width="1" height="20" fill="#41A6DC"/>
    <rect x="242" width="1" height="20" fill="#41A6DC"/>
    <rect x="253" width="1" height="20" fill="#41A6DC"/>
    <rect x="264" width="1" height="20" fill="#41A6DC"/>
</svg>
