<svg width="1167" height="55" viewBox="0 0 1167 55" fill="none" xmlns="http://www.w3.org/2000/svg">
    <rect width="1" height="55" fill="#41A6DC"/>
    <rect x="11" width="1" height="20" fill="#41A6DC"/>
    <rect x="22" width="1" height="20" fill="#41A6DC"/>
    <rect x="33" width="1" height="20" fill="#41A6DC"/>
    <rect x="44" width="1" height="20" fill="#41A6DC"/>
    <rect x="55" width="1" height="20" fill="#41A6DC"/>
    <rect x="66" width="1" height="20" fill="#41A6DC"/>
    <rect x="77" width="1" height="20" fill="#41A6DC"/>
    <rect x="88" width="1" height="20" fill="#41A6DC"/>
    <rect x="99" width="1" height="20" fill="#41A6DC"/>
    <rect x="110" width="1" height="20" fill="#41A6DC"/>
    <rect x="121" width="1" height="20" fill="#41A6DC"/>
    <rect x="132" width="1" height="20" fill="#41A6DC"/>
    <rect x="143" width="1" height="20" fill="#41A6DC"/>
    <rect x="154" width="1" height="20" fill="#41A6DC"/>
    <rect x="165" width="1" height="20" fill="#41A6DC"/>
    <rect x="176" width="1" height="20" fill="#41A6DC"/>
    <rect x="187" width="1" height="20" fill="#41A6DC"/>
    <rect x="198" width="1" height="20" fill="#41A6DC"/>
    <rect x="209" width="1" height="20" fill="#41A6DC"/>
    <rect x="220" width="1" height="20" fill="#41A6DC"/>
    <rect x="231" width="1" height="20" fill="#41A6DC"/>
    <rect x="242" width="1" height="20" fill="#41A6DC"/>
    <rect x="253" width="1" height="20" fill="#41A6DC"/>
    <rect x="264" width="1" height="20" fill="#41A6DC"/>
    <rect x="275" width="1" height="55" fill="#41A6DC"/>
    <rect x="286" width="1" height="20" fill="#41A6DC"/>
    <rect x="297" width="1" height="20" fill="#41A6DC"/>
    <rect x="308" width="1" height="20" fill="#41A6DC"/>
    <rect x="319" width="1" height="20" fill="#41A6DC"/>
    <rect x="330" width="1" height="20" fill="#41A6DC"/>
    <rect x="341" width="1" height="20" fill="#41A6DC"/>
    <rect x="352" width="1" height="20" fill="#41A6DC"/>
    <rect x="363" width="1" height="20" fill="#41A6DC"/>
    <rect x="374" width="1" height="20" fill="#41A6DC"/>
    <rect x="385" width="1" height="20" fill="#41A6DC"/>
    <rect x="396" width="1" height="20" fill="#41A6DC"/>
    <rect x="407" width="1" height="20" fill="#41A6DC"/>
    <rect x="418" width="1" height="20" fill="#41A6DC"/>
    <rect x="429" width="1" height="20" fill="#41A6DC"/>
    <rect x="440" width="1" height="20" fill="#41A6DC"/>
    <rect x="451" width="1" height="20" fill="#41A6DC"/>
    <rect x="462" width="1" height="20" fill="#41A6DC"/>
    <rect x="473" width="1" height="20" fill="#41A6DC"/>
    <rect x="484" width="1" height="20" fill="#41A6DC"/>
    <rect x="495" width="1" height="20" fill="#41A6DC"/>
    <rect x="506" width="1" height="20" fill="#41A6DC"/>
    <rect x="517" width="1" height="20" fill="#41A6DC"/>
    <rect x="528" width="1" height="20" fill="#41A6DC"/>
    <rect x="539" width="1" height="20" fill="#41A6DC"/>
    <rect x="550" width="1" height="20" fill="#41A6DC"/>
    <rect x="561" width="1" height="20" fill="#41A6DC"/>
    <rect x="572" width="1" height="20" fill="#41A6DC"/>
    <rect x="583" width="1" height="55" fill="#41A6DC"/>
    <rect x="594" width="1" height="20" fill="#41A6DC"/>
    <rect x="605" width="1" height="20" fill="#41A6DC"/>
    <rect x="616" width="1" height="20" fill="#41A6DC"/>
    <rect x="627" width="1" height="20" fill="#41A6DC"/>
    <rect x="638" width="1" height="20" fill="#41A6DC"/>
    <rect x="649" width="1" height="20" fill="#41A6DC"/>
    <rect x="660" width="1" height="20" fill="#41A6DC"/>
    <rect x="671" width="1" height="20" fill="#41A6DC"/>
    <rect x="682" width="1" height="20" fill="#41A6DC"/>
    <rect x="693" width="1" height="20" fill="#41A6DC"/>
    <rect x="704" width="1" height="20" fill="#41A6DC"/>
    <rect x="715" width="1" height="20" fill="#41A6DC"/>
    <rect x="726" width="1" height="20" fill="#41A6DC"/>
    <rect x="737" width="1" height="20" fill="#41A6DC"/>
    <rect x="748" width="1" height="20" fill="#41A6DC"/>
    <rect x="759" width="1" height="20" fill="#41A6DC"/>
    <rect x="770" width="1" height="20" fill="#41A6DC"/>
    <rect x="781" width="1" height="20" fill="#41A6DC"/>
    <rect x="792" width="1" height="20" fill="#41A6DC"/>
    <rect x="803" width="1" height="20" fill="#41A6DC"/>
    <rect x="814" width="1" height="20" fill="#41A6DC"/>
    <rect x="825" width="1" height="20" fill="#41A6DC"/>
    <rect x="836" width="1" height="20" fill="#41A6DC"/>
    <rect x="847" width="1" height="20" fill="#41A6DC"/>
    <rect x="858" width="1" height="20" fill="#41A6DC"/>
    <rect x="869" width="1" height="20" fill="#41A6DC"/>
    <rect x="880" width="1" height="55" fill="#41A6DC"/>
    <rect x="891" width="1" height="20" fill="#41A6DC"/>
    <rect x="902" width="1" height="20" fill="#41A6DC"/>
    <rect x="913" width="1" height="20" fill="#41A6DC"/>
    <rect x="924" width="1" height="20" fill="#41A6DC"/>
    <rect x="935" width="1" height="20" fill="#41A6DC"/>
    <rect x="946" width="1" height="20" fill="#41A6DC"/>
    <rect x="957" width="1" height="20" fill="#41A6DC"/>
    <rect x="968" width="1" height="20" fill="#41A6DC"/>
    <rect x="979" width="1" height="20" fill="#41A6DC"/>
    <rect x="990" width="1" height="20" fill="#41A6DC"/>
    <rect x="1001" width="1" height="20" fill="#41A6DC"/>
    <rect x="1012" width="1" height="20" fill="#41A6DC"/>
    <rect x="1023" width="1" height="20" fill="#41A6DC"/>
    <rect x="1034" width="1" height="20" fill="#41A6DC"/>
    <rect x="1045" width="1" height="20" fill="#41A6DC"/>
    <rect x="1056" width="1" height="20" fill="#41A6DC"/>
    <rect x="1067" width="1" height="20" fill="#41A6DC"/>
    <rect x="1078" width="1" height="20" fill="#41A6DC"/>
    <rect x="1089" width="1" height="20" fill="#41A6DC"/>
    <rect x="1100" width="1" height="20" fill="#41A6DC"/>
    <rect x="1111" width="1" height="20" fill="#41A6DC"/>
    <rect x="1122" width="1" height="20" fill="#41A6DC"/>
    <rect x="1133" width="1" height="20" fill="#41A6DC"/>
    <rect x="1144" width="1" height="20" fill="#41A6DC"/>
    <rect x="1155" width="1" height="20" fill="#41A6DC"/>
    <rect x="1166" width="1" height="55" fill="#41A6DC"/>
</svg>