<svg xmlns="http://www.w3.org/2000/svg" width="40" height="40" fill="none" viewBox="0 0 40 40">
    <path fill="#fff" d="M39.31 18.717h-8.82v-1.703a.69.69 0 0 0-.352-.6l-9.448-5.31V8.4h1.869v1.028c0 .38.308.69.69.69h5.634a.69.69 0 0 0 .648-.925l-.566-1.607.573-1.572a.69.69 0 0 0-.648-.924h-2.566v-1a.69.69 0 0 0-.69-.69H20.69v-.841a.69.69 0 0 0-1.38 0v8.544l-9.448 5.304a.69.69 0 0 0-.352.6v1.703H.69a.69.69 0 0 0-.69.69v18.041c0 .381.309.69.69.69h38.62a.69.69 0 0 0 .69-.69V19.407a.69.69 0 0 0-.69-.69zM26.324 7.71l-.027-.027V6.497h1.572l-.283.882a.69.69 0 0 0 0 .476l.324.883h-3.972V8.4h1.697a.69.69 0 0 0 .69-.69zM20.69 4.78h4.255V7.02H20.69V4.779zM9.51 36.751H1.38V20.096h8.13v16.656zm9.8 0h-3.62v-7.876h3.62v7.876zm5 0h-3.62v-7.876h3.62v7.876zm4.828 0H25.69v-8.566a.69.69 0 0 0-.69-.69H15a.69.69 0 0 0-.69.69v8.566h-3.448v-19.31L20 12.295l9.11 5.118.028 1.986v17.352zm9.483 0H30.49V20.096h8.13v16.656z"/>
    <path fill="#fff" d="M20 14.407a2.896 2.896 0 0 0-2.89 2.896A2.89 2.89 0 1 0 20 14.407zm0 4.4a1.51 1.51 0 0 1 0-3.02c.835.003 1.51.681 1.51 1.516h.007A1.51 1.51 0 0 1 20 18.808zM4.42 21.614H3.043v2.758H4.42v-2.758zM7.82 21.614H6.441v2.758h1.38v-2.758zM15.717 21.614H12.96v1.38h2.758v-1.38zM21.38 21.614h-2.76v1.38h2.76v-1.38zM27.041 21.614h-2.758v1.38h2.758v-1.38zM15.717 24.828H12.96v1.379h2.758v-1.38zM21.38 24.828h-2.76v1.379h2.76v-1.38zM27.041 24.828h-2.758v1.379h2.758v-1.38zM4.42 27.041H3.043V29.8H4.42v-2.759zM7.82 27.041H6.441V29.8h1.38v-2.759zM4.42 32.476H3.043v2.758H4.42v-2.758zM7.82 32.476H6.441v2.758h1.38v-2.758zM33.559 21.614h-1.38v2.758h1.38v-2.758zM36.958 21.614H35.58v2.758h1.38v-2.758zM33.559 27.041h-1.38V29.8h1.38v-2.759zM36.958 27.041H35.58V29.8h1.38v-2.759zM33.559 32.476h-1.38v2.758h1.38v-2.758zM36.958 32.476H35.58v2.758h1.38v-2.758z"/>
</svg>
